<svg xmlns="http://www.w3.org/2000/svg" width="150" height="150" fill="#985885" viewBox="-100 -100 1224 1224"><path d="M892.268 514.49c2.442-11.108 3.732-22.646 3.732-34.49 0-88.366-71.634-160-160-160-14.224 0-28.014 1.868-41.134 5.352-24.796-77.352-97.288-133.352-182.866-133.352-87.348 0-161.054 58.336-184.326 138.17-22.742-6.62-46.792-10.17-71.674-10.17-141.384 0-256 114.616-256 256 0 141.382 114.616 256 256 256h608c88.366 0 160-71.632 160-160 0-78.718-56.854-144.16-131.732-157.51zM416 768l-160-160 64-64 96 96 224-224 64 64-288 288z"></path></svg>