<?xml version="1.0" encoding="UTF-8" standalone="no"?>
<svg
   xmlns:dc="http://purl.org/dc/elements/1.1/"
   xmlns:cc="http://creativecommons.org/ns#"
   xmlns:rdf="http://www.w3.org/1999/02/22-rdf-syntax-ns#"
   xmlns:svg="http://www.w3.org/2000/svg"
   xmlns="http://www.w3.org/2000/svg"
   xmlns:sodipodi="http://sodipodi.sourceforge.net/DTD/sodipodi-0.dtd"
   xmlns:inkscape="http://www.inkscape.org/namespaces/inkscape"
   width="48"
   height="48"
   fill="#985885"
   viewBox="-100 -100 1224 1224"
   version="1.1"
   id="svg817"
   sodipodi:docname="clearstatus.svg"
   inkscape:export-filename="V:\Weeblr\Sales, Marketing\Products\clearstatus\2019-05-10-clearstatus-logo-1000x1000.png"
   inkscape:export-xdpi="2000"
   inkscape:export-ydpi="2000"
   inkscape:version="0.92.4 (5da689c313, 2019-01-14)">
  <metadata
     id="metadata823">
    <rdf:RDF>
      <cc:Work
         rdf:about="">
        <dc:format>image/svg+xml</dc:format>
        <dc:type
           rdf:resource="http://purl.org/dc/dcmitype/StillImage" />
      </cc:Work>
    </rdf:RDF>
  </metadata>
  <defs
     id="defs821" />
  <sodipodi:namedview
     pagecolor="#ffffff"
     bordercolor="#666666"
     borderopacity="1"
     objecttolerance="10"
     gridtolerance="10"
     guidetolerance="10"
     inkscape:pageopacity="0"
     inkscape:pageshadow="2"
     inkscape:window-width="1920"
     inkscape:window-height="1017"
     id="namedview819"
     showgrid="false"
     inkscape:zoom="18.020833"
     inkscape:cx="19.477457"
     inkscape:cy="24"
     inkscape:window-x="-8"
     inkscape:window-y="1447"
     inkscape:window-maximized="1"
     inkscape:current-layer="svg817" />
  <rect
     style="fill:#ffffff;fill-opacity:1;fill-rule:nonzero;stroke:none;stroke-width:10.35490131;stroke-miterlimit:4;stroke-dasharray:none;stroke-dashoffset:0;stroke-opacity:1"
     id="rect825"
     width="621.19769"
     height="400.45322"
     x="174.51561"
     y="386.76993" />
  <path
     d="M892.268 514.49c2.442-11.108 3.732-22.646 3.732-34.49 0-88.366-71.634-160-160-160-14.224 0-28.014 1.868-41.134 5.352-24.796-77.352-97.288-133.352-182.866-133.352-87.348 0-161.054 58.336-184.326 138.17-22.742-6.62-46.792-10.17-71.674-10.17-141.384 0-256 114.616-256 256 0 141.382 114.616 256 256 256h608c88.366 0 160-71.632 160-160 0-78.718-56.854-144.16-131.732-157.51zM416 768l-160-160 64-64 96 96 224-224 64 64-288 288z"
     id="path815" />
</svg>
